<svg xmlns="http://www.w3.org/2000/svg" xmlns:xlink="http://www.w3.org/1999/xlink" viewBox="0 0 280 28" width="40vw" height="auto">
  <defs>
    <style>
      .cls-1 {
        isolation: isolate;
      }

      .cls-2 {
        fill-rule: evenodd;
      }

      #shadow {
        pointer-events: none;
      }
    </style>
  </defs>
  <g id="front_point" class="cls-1">
    <path class="cls-2" d="M141.75,132.75A128.91,128.91,0,0,1,156,135a110.58,110.58,0,0,1,15.75,4.5A113.44,113.44,0,0,1,185.47,146c2.75,1.5,5.4,3.07,8,4.77l5.25,4.5c1.06.81,2.09,1.65,3.09,2.53s1.93,1.77,2.91,2.72c2.29,2.21,4.48,3.77,6.75,6,1.32,1.29,2.38,2.51,3.75,3.75a34,34,0,0,1,3,3,27.29,27.29,0,0,1,2.25,3c-3.56.2-7,.44-10.5.75-5.46.48-15.77,1.88-24,2.25-2.87.13-7.65.17-11.61.2s-7.71,0-11.62,0c-8.33-.12-16.45-.41-24.77-.9-6.07-.57-12-1.06-18-1.5s-12.53-.8-18.45-1.29c-6.08-.5-12.16-1.06-18.3-1.71-8.33-.88-16.45-1.86-24.75-3l-14.25-1.5c-3.65-.4-7.18-.89-10.5-1.5A45.23,45.23,0,0,1,18,162a45,45,0,0,1-2.38-8.12A44.44,44.44,0,0,1,15,141.75a11.1,11.1,0,0,1,.75-3,15.78,15.78,0,0,1,5.25-6A30.85,30.85,0,0,1,27.75,129c2-1.27,4-2.51,6-3.75,2.5-1.53,5-3,7.5-4.5a11,11,0,0,0,2.25,3.75,11.51,11.51,0,0,0,4.32,2.83,16.05,16.05,0,0,0,3.93.92c3.32.35,6.77.69,9.38.73l1.16,0H79.5a154.33,154.33,0,0,1,18.75,0c4.18.25,9.8.78,9.8.76h0s8.88,1.45,19.5,2.25C131,132.27,136.87,132.25,141.75,132.75Z"/>
  </g>
  <g id="back" class="cls-1">
    <path class="cls-2" d="M474.75,78c.29,2.76.54,5.47.75,8.25.69,9,.67,20,.75,30.75,0,5.35.19,11.68,0,15.75l-.75,15.75c-1.18,6.5-4.28,15.64-12,15.75-4.2,2.82-24.44,2.31-31.5,2.25V147.75H410.25c-8.05,0-19.05,0-24,0-14,.11-36,.75-36,.75v20.25h-9c.48-4.25,1-8.48,1.5-12.75a107.17,107.17,0,0,1,4.5-21.75c2.83-8.63,6.38-15.09,12-20.25a35,35,0,0,1,10.5-6.75,37.87,37.87,0,0,1,9-2.25c3.66-.58,7.38-1.32,11.25-2.25l13.5-3c7.66-1.7,17.32-4.37,26.15-6.54,4.94-1.21,10-2.54,15.1-4,4.26-1.18,8.55-2.46,12-3.75,3.79-1.42,9.61-3.92,14.25-6,.69-.31,1.35-.59,2.06-.87S474.18,78.2,474.75,78Z"/>
  </g>
  <g id="top_lace" class="cls-1">
    <path class="cls-2" d="M136.5,104.25a39.22,39.22,0,0,1-7.5.75,34,34,0,0,1-6.75-.75c-2-.33-4.29-.63-6-.75a34.1,34.1,0,0,1-3.75-.75c-1.71-.43-3.13-.94-3.75-2.25a3.94,3.94,0,0,1,0-3A41.88,41.88,0,0,1,114,95.25,64.91,64.91,0,0,1,123.75,93c1.53-.26,3.47-.6,4.5-.75a28.15,28.15,0,0,0,4.5-.75,8.37,8.37,0,0,1,3-.75c2.41.09,4.08,2.27,6,3,1.75.66,4.11,1.06,6,0a6.92,6.92,0,0,0,3-4.5,14,14,0,0,0,0-4.5c-.24-1.62-.73-3,0-3.75.49-.52,2-.66,2.25-.75a10.35,10.35,0,0,0,1.5-.75,15.48,15.48,0,0,0,3-2.25l.75,3a11.76,11.76,0,0,0,4.5,3,12.06,12.06,0,0,0,8.25,0,11.71,11.71,0,0,0,1.5-3,12.31,12.31,0,0,0,0-7.5c-.6-.77-.27-.21-.75-1.5L174,70.5a7.71,7.71,0,0,0,3-1.5c.42-.35.94-.87,1.5-.75.71.16,1.34,2,1.5,2.25a8.4,8.4,0,0,0,3.75,2.25c2.13.7,7,1.54,9.75-1.5A5.74,5.74,0,0,0,195,67.5a5.08,5.08,0,0,0-1.5-3.75c-.6-.51-1.31-.76-1.5-1.5a1.58,1.58,0,0,1,0-.75q1.13-.44,2.25-.75A8.37,8.37,0,0,0,196.5,60c.49-.3,1.4-1.47,2.25-1.5s1.38.77,2.25,1.5a14.83,14.83,0,0,0,3,1.5,16.93,16.93,0,0,0,2.25.75c2.31.58,7.28,1.32,9.75-1.5a7.08,7.08,0,0,0,1.5-5.25,8.77,8.77,0,0,1-1.5-3.75,8.51,8.51,0,0,0,3.75-.75,8.63,8.63,0,0,0,3-2.25,14.9,14.9,0,0,0,6.75,3c3.85.62,9.51-.09,10.5-3a7,7,0,0,0-.75-3.75,8.42,8.42,0,0,0-3-3.75A6.23,6.23,0,0,0,234,40.5a1.69,1.69,0,0,1,.75-.75c1.1-.5,2.34.86,3.75.75s1.91-1.12,3-1.5a9.4,9.4,0,0,1,5.25.75A13.7,13.7,0,0,1,250.5,42a11.34,11.34,0,0,0,4.5.75,8.66,8.66,0,0,0,6-2.25,7,7,0,0,0,1.5-6.75,8.94,8.94,0,0,0-3-3.75c-.9-.69-2.3-1.36-2.25-1.5s2.06.54,3.75.75a42.08,42.08,0,0,0,4.5,0c2.6.09,5.34,1.22,6.75,1.5,3.3.66,9.5,1.41,11.25-1.5,1.59-2.64.2-7.62-4.5-11.25a3.43,3.43,0,0,1,1.5-.75c1.4-.29,2.7.64,3.75.75,1.42.15,2.82-.59,3.75-.75a11.79,11.79,0,0,1,3.75,0,90.46,90.46,0,0,1,10.39,5.39,91.56,91.56,0,0,1,11.36,8.11,33.36,33.36,0,0,0-16.5,6,40,40,0,0,1-6,3,39.56,39.56,0,0,1-4.5,1.5c-7.22,3.62-14.36,7.06-21.75,10.5-13.73,6.38-29.23,13-44.25,19.5-42.67,18.62-42.57,22.6-66,29.25C148.75,102.13,142.8,103,136.5,104.25Z"/>
  </g>
  <g id="middle" class="cls-1">
    <path class="cls-2" d="M294.75,124.5c5.59,2.09,11,4.31,16.5,6.75,4.51,2,8.17,4.16,12.75,6,3.77,1.52,11.7,4.55,17.25,8.25l2.25,1.5s0,0-.75,8.25A61.38,61.38,0,0,0,342,162a63.33,63.33,0,0,0,0,6.75c-4.53-.15-9-.15-13.5,0-4,.13-8,.38-12,.75-4.78.17-9.45.42-14.25.75-2.07.14-7.35.57-9.75.75-3.5.27-7,.51-10.5.75h-3.75s-.07-3.56,0-5.25a55.24,55.24,0,0,1,.75-6.75A78.78,78.78,0,0,1,285,141,91.63,91.63,0,0,1,294.75,124.5Z"/>
    <path class="cls-2" d="M108,98.25l.75,3a40.11,40.11,0,0,0,6,2.25,59.69,59.69,0,0,0,9.75,1.5,81,81,0,0,0,8.58.3c2,0,3.89-.19,5.92-.4l13.25-1.4c5.55,0,11,0,16.5,0,7.82.08,16.31.28,22.5.75,3,.23,5.95.55,9,.75,3.35.23,7.2.65,9.75.75,2.74.11,5.94.17,6,.75s-4.11,1.74-5.25,2.25a47.07,47.07,0,0,0-5.25,3,115.93,115.93,0,0,0-12.75,9.75c-4.52,4.12-8.92,8.58-10.91,12.06-.84,1.47-1.77,2.21-2.59,3.69A4.34,4.34,0,0,1,177,139.5c-1.45.49-2.88-.32-3.75-.75-.34-.17-3.3-.92-5.25-1.5-1.23-.37-3.91-1-6-1.5A153.5,153.5,0,0,0,137.25,132c-13.49-.84-27.34-2.21-39-2.25-3.39,0-11.13,0-16.5,0-6.62,0-12.13-.8-18.75-.75a48.24,48.24,0,0,1-12-1.5,39.28,39.28,0,0,1-7.5-3A3.06,3.06,0,0,1,42.28,122a3.11,3.11,0,0,1,2-2.77l4.5-1.5,6.75-2.25c6.68-2.2,12.85-3.71,19.5-6,5.5-1.89,10.26-4.06,15.75-6C96.47,101.48,102.19,99.74,108,98.25Z"/>
  </g>
  <g id="rainbow" class="cls-1">
    <path class="cls-2" d="M192,150c-1.85-1.22-5.12-3.28-7.75-4.94-2.17-1.37-4.33-2.72-6.5-4.06,5.19-7.7,8.66-13,15.75-19.5a86.31,86.31,0,0,1,9.56-7.48c7.55-5.17,15.57-9.79,24.19-12a224.86,224.86,0,0,1,22.5-4.5c11.26-1.71,23.84-3,36.75-3.75,5.14-.31,10.42-.56,15.75-.75s11.07-.41,15.75-.75c2.6-.19,5.47-.43,8.25-.68s5.48-.52,8.25-.82c9.53-1,19.84-2.33,30-3.75,5.66-.79,13.45-2,20.25-3,10.56-1.61,22.26-3.41,30-5.25a269.51,269.51,0,0,0,28.5-8.25c2.37-.89,4.41-1.29,6.75-2.25,3.42-1.4,6.1-2.86,9.75-2.25a12.49,12.49,0,0,1,7.5,4.5,15.27,15.27,0,0,1,3,8.25s-8.05,4-17.25,7.5c-10.55,4-19,5.76-30,8.25,0,0-.74-5.15-.75-5.25S421.5,84,421.5,84c-4.86.48-10.09.94-14.25,1.5-2.3.31-9.75,1.5-9.75,1.5s.1,5.21,0,6.75a54.83,54.83,0,0,1-.75,6,134.16,134.16,0,0,1-14.25,4.5c-3.26.83-6.84,1.59-10.5,2.25-1.33.24-3,.51-4.5.75-2.27.36-7,1-10.5,1.5-3.3.47-6.46,1-9.75,1.5-3.83.56-8.2,1.16-11.25,1.5-3.5.38-8.47,1-12.75,1.5a60.88,60.88,0,0,0-10.5,2.25,55.85,55.85,0,0,0-7.5,3,46,46,0,0,0-10.5,6.75c-2.63,2.34-7.91,9.42-11.25,18-2.6,6.66-4.29,15.26-5.16,22.2-.13,1.05-.27,2.16-.4,3.14s-.29,2.1-.44,3.16c-5.26.24-10.49.49-15.75.75-13.55.68-27,1.42-40.5,2.25A129.82,129.82,0,0,0,210,163.5,167.1,167.1,0,0,0,192,150Z"/>
  </g>
  <g id="puma_top" class="cls-1">
    <path class="cls-2" d="M286.5,42H288q-.36,5.76-.74,11.5t-.76,11.75c-4.57,2-11.06,4.85-13.5,6-7.86,3.71-19.33,9.22-24,11.25-.93.4-1.83.76-2.77,1.09a39.37,39.37,0,0,1-4,1.16,46.88,46.88,0,0,1-9-.75c-2.32-.42-4.42-1-6.75-1.5l-3.75-.75c-3.3,1.18-6.5,2.41-9.75,3.75-8.17,3.36-15,6.75-15,6.75s-6.29-.47-8.25-.75a68.16,68.16,0,0,1-7.5-1.5h-.75v-.75c1-.44,2-.89,3-1.34s2-.93,3-1.42c6-2.91,26.15-11.77,33.77-15.24C159.46,99.36,287.29,40.89,286.5,42Z"/>
    <path class="cls-2" d="M469.5,61.5l3,16.5-1.5.75c-2.13-7.71-5.24-13.28-9.75-14.25-2.17-.47-3.81.4-6.75,1.5a42,42,0,0,1-14.25,3,29.18,29.18,0,0,1-9-1.5c-2.27-.73-4.49-1.47-6.75-2.25-2.79-1-5.49-2-8.25-3,1-.53,2-1,3-1.5,5.64-2.64,11.57-3.49,16.5-6.75a27.44,27.44,0,0,0,9.75-12,49,49,0,0,0,3-6.75c.77-2.18,1.28-4,3-6a14.66,14.66,0,0,1,8.25-4.5c.8,1,1.54,2,2.25,3a28.44,28.44,0,0,1,2.25,3.75,21.06,21.06,0,0,1,1.5,4.5,40.22,40.22,0,0,1,.75,7.5,69.67,69.67,0,0,0,.75,7.5A77.82,77.82,0,0,0,469.5,61.5Z"/>
  </g>
  <g id="shadow" data-name="shadow Image">
    <image id="shadow_Image-2" data-name="shadow Image" width="640" height="304" transform="scale(0.75)" xlink:href="theShoe1.png"/>
  </g>
</svg>
